# File created by Blade
# Date/Time:  Wed Apr 08 17:00:23 2015
#---------------------------------------------------------
:version 1.10
:name HOM
:units
  mass 1.0
  length 1.000000
  angle deg
:documentation
     Acclaim Skeleton File
:root
   axis xyz
   order TX TY TZ RX RY RZ
   position 0.000000 0.000000 0.000000
   orientation 0 0 0
:bonedata
   begin
      id 1
      name Spine_dum
      direction 0.000000 1.000000 0.000000
      length 5.893853
      axis 0.0 0.0 0.0 xyz
   end
   begin
      id 2
      name LeftUpLeg_dum
      direction 1.000000 0.000000 0.000000
      length 3.697939
      axis 0.0 0.0 0.0 xyz
   end
   begin
      id 3
      name RightUpLeg_dum
      direction -1.000000 0.000000 0.000000
      length 3.697939
      axis 0.0 0.0 0.0 xyz
   end
   begin
      id 4
      name Spine
      direction 0.000000 1.000000 0.000000
      length 0.000000
      axis 0.0 0.0 0.0 xyz
      dof rx ry rz
   end
   begin
      id 5
      name Spine_dum1
      direction 0.000000 1.000000 0.000000
      length 16.447146
      axis 0.0 0.0 0.0 xyz
   end
   begin
      id 6
      name Spine_dum2
      direction 0.000000 1.000000 0.000000
      length 10.900383
      axis 0.0 0.0 0.0 xyz
   end
   begin
      id 7
      name Spine_dum3
      direction 0.000000 1.000000 0.000000
      length 10.900383
      axis 0.0 0.0 0.0 xyz
   end
   begin
      id 8
      name Head
      direction 0.000000 1.000000 0.000000
      length 4.527550
      axis 0.0 0.0 0.0 xyz
      dof rx ry rz
   end
   begin
      id 9
      name LeftShoulder
      direction 1.000000 0.000000 0.000000
      length 8.219464
      axis 0.0 0.0 -90.0 xyz
      dof rx ry rz
   end
   begin
      id 10
      name LeftArm
      direction 1.000000 0.000000 0.000000
      length 11.094937
      axis 0.0 0.0 -90.0 xyz
      dof rx ry rz
   end
   begin
      id 11
      name LeftForeArm
      direction 1.000000 0.000000 0.000000
      length 9.103875
      axis 0.0 0.0 -90.0 xyz
      dof ry rz rx
   end
   begin
      id 12
      name LeftHand
      direction 0.000000 0.000000 0.000000
      length 0.000000
      axis 0.0 0.0 -90.0 xyz
      dof rx ry rz
   end
   begin
      id 13
      name LeftHand_dum1
      direction 0.000000 0.000000 0.000000
      length 0.000000
      axis 0.0 0.0 -90.0 xyz
   end
   begin
      id 14
      name LeftHand_dum2
      direction 1.000000 0.000000 0.000000
      length 3.937000
      axis 0.0 0.0 -90.0 xyz
   end
   begin
      id 15
      name LeftHandThumb1
      direction 0.000000 0.000000 1.000000
      length 3.937000
      axis 0.0 0.0 -90.0 xyz
      dof rx rz ry
   end
   begin
      id 16
      name RightShoulder
      direction -1.000000 0.000000 0.000000
      length 8.219464
      axis 0.0 0.0 90.0 xyz
      dof rx ry rz
   end
   begin
      id 17
      name RightArm
      direction -1.000000 0.000000 0.000000
      length 11.094937
      axis 0.0 0.0 90.0 xyz
      dof rx ry rz
   end
   begin
      id 18
      name RightForeArm
      direction -1.000000 0.000000 0.000000
      length 9.103875
      axis 0.0 0.0 90.0 xyz
      dof ry rz rx
   end
   begin
      id 19
      name RightHand
      direction 0.000000 0.000000 0.000000
      length 0.000000
      axis 0.0 0.0 90.0 xyz
      dof rx ry rz
   end
   begin
      id 20
      name RightHand_dum1
      direction 0.000000 0.000000 0.000000
      length 0.000000
      axis 0.0 0.0 90.0 xyz
   end
   begin
      id 21
      name RightHand_dum2
      direction -1.000000 0.000000 0.000000
      length 3.937000
      axis 0.0 0.0 90.0 xyz
   end
   begin
      id 22
      name RightHandThumb1
      direction 0.000000 0.000000 1.000000
      length 3.937000
      axis 0.0 0.0 90.0 xyz
      dof rx rz ry
   end
   begin
      id 23
      name LeftUpLeg
      direction 0.000000 -1.000000 0.000000
      length 16.181467
      axis 0.0 0.0 0.0 xyz
      dof rx ry rz
   end
   begin
      id 24
      name LeftLeg
      direction 0.000000 -1.000000 0.000000
      length 16.501392
      axis 0.0 0.0 0.0 xyz
      dof rx ry rz
   end
   begin
      id 25
      name LeftFoot
      direction 0.000000 -0.258819 0.965926
      length 6.408245
      axis 15.0 0.0 0.0 xyz
      dof rx ry rz
   end
   begin
      id 26
      name LeftToeBase
      direction 0.000000 0.000000 1.000000
      length 2.952750
      axis 0.0 0.0 0.0 xyz
      dof rx ry rz
   end
   begin
      id 27
      name RightUpLeg
      direction 0.000000 -1.000000 0.000000
      length 16.181467
      axis 0.0 0.0 0.0 xyz
      dof rx ry rz
   end
   begin
      id 28
      name RightLeg
      direction 0.000000 -1.000000 0.000000
      length 16.501392
      axis 0.0 0.0 0.0 xyz
      dof rx ry rz
   end
   begin
      id 29
      name RightFoot
      direction 0.000000 -0.258819 0.965926
      length 6.408245
      axis 15.0 0.0 0.0 xyz
      dof rx ry rz
   end
   begin
      id 30
      name RightToeBase
      direction 0.000000 0.000000 1.000000
      length 2.952750
      axis 0.0 0.0 0.0 xyz
      dof rx ry rz
   end
:hierarchy
   begin
      root Spine_dum LeftUpLeg_dum RightUpLeg_dum
      Spine_dum Spine
      LeftUpLeg_dum LeftUpLeg
      RightUpLeg_dum RightUpLeg
      Spine Spine_dum1 Spine_dum2 Spine_dum3
      Spine_dum1 Head
      Spine_dum2 LeftShoulder
      Spine_dum3 RightShoulder
      LeftShoulder LeftArm
      LeftArm LeftForeArm
      LeftForeArm LeftHand
      LeftHand LeftHand_dum1 LeftHand_dum2
      LeftHand_dum1 LeftHandThumb1
      RightShoulder RightArm
      RightArm RightForeArm
      RightForeArm RightHand
      RightHand RightHand_dum1 RightHand_dum2
      RightHand_dum1 RightHandThumb1
      LeftUpLeg LeftLeg
      LeftLeg LeftFoot
      LeftFoot LeftToeBase
      RightUpLeg RightLeg
      RightLeg RightFoot
      RightFoot RightToeBase
   end

# File created by Blade
# Date/Time:  Wed Apr 08 17:00:17 2015
# Frame Rate: 120.000 fps
#------------------------------------------------------
:FULLY-SPECIFIED
:DEGREES
1002
root 1.466685 35.594358 2.525883 -22.551755 -69.208042 8.313492
Spine 13.247859 9.397693 -13.598243
Head 0.225583 -15.237191 6.876614
LeftShoulder 8.349124 0.389898 21.976226
LeftArm 97.724750 49.296863 -39.476518
LeftForeArm -42.599973 -0.000000 94.290661
LeftHand -23.315188 -0.000000 18.900457
LeftHandThumb1 -26.253704 0.000000 33.147579
RightShoulder 4.323713 -34.302408 -31.022411
RightArm 71.519277 26.514538 3.929858
RightForeArm -28.361572 -0.000000 118.451682
RightHand 8.504989 -0.000000 21.763869
RightHandThumb1 -24.326973 -0.000000 -32.862282
LeftUpLeg 11.702842 0.285713 4.692172
LeftLeg 14.559745 -0.000000 -0.000000
LeftFoot -13.333081 -5.894479 -10.638645
LeftToeBase 9.820275 -0.000000 -0.000000
RightUpLeg 28.204838 -23.033547 -19.824645
RightLeg 1.821841 -0.000000 -0.000000
RightFoot -14.183350 2.383859 20.578445
RightToeBase 14.310456 -0.000000 -0.000000
1003
root 1.477569 35.593269 2.518994 -22.528714 -69.068418 8.257609
Spine 13.340714 9.390446 -13.613441
Head 0.274982 -15.173589 6.838842
LeftShoulder 8.306710 0.454713 21.988574
LeftArm 97.699848 49.324068 -39.509058
LeftForeArm -42.494929 -0.000000 94.437546
LeftHand -23.670507 -0.000000 18.979951
LeftHandThumb1 -26.253704 0.000000 33.147579
RightShoulder 4.417578 -34.416553 -31.151736
RightArm 71.381228 26.764313 4.253407
RightForeArm -27.802713 -0.000000 118.830261
RightHand 8.389258 -0.000000 22.473722
RightHandThumb1 -24.326973 -0.000000 -32.862282
LeftUpLeg 11.669094 0.225750 4.690127
LeftLeg 14.587444 -0.000000 -0.000000
LeftFoot -13.305816 -5.988743 -10.669922
LeftToeBase 9.835717 -0.000000 -0.000000
RightUpLeg 28.250189 -23.101947 -19.853285
RightLeg 1.859141 -0.000000 -0.000000
RightFoot -14.233860 2.341303 20.577487
RightToeBase 14.283882 -0.000000 -0.000000
1004
root 1.485937 35.592629 2.509833 -22.491674 -68.934379 8.194384
Spine 13.440300 9.446902 -13.632565
Head 0.242841 -15.175616 6.865772
LeftShoulder 8.287346 0.404553 22.043759
LeftArm 97.621024 49.487390 -39.569055
LeftForeArm -42.313474 -0.000000 94.500831
LeftHand -23.256529 -0.000000 18.783356
LeftHandThumb1 -26.253704 0.000000 33.147579
RightShoulder 4.407946 -34.500687 -31.198502
RightArm 71.237757 26.947751 4.620112
RightForeArm -27.369009 -0.000000 119.147194
RightHand 8.234791 -0.000000 22.726370
RightHandThumb1 -24.326973 -0.000000 -32.862282
LeftUpLeg 11.634956 0.146450 4.695507
LeftLeg 14.609510 -0.000000 -0.000000
LeftFoot -13.272090 -6.081725 -10.712675
LeftToeBase 9.856534 -0.000000 -0.000000
RightUpLeg 28.302637 -23.165859 -19.866663
RightLeg 1.865651 -0.000000 -0.000000
RightFoot -14.269180 2.288985 20.595804
RightToeBase 14.286892 -0.000000 -0.000000
1005
root 1.494617 35.592536 2.501918 -22.456953 -68.807462 8.139020
Spine 13.526303 9.536306 -13.649651
Head 0.226001 -15.203250 6.901980
LeftShoulder 8.314192 0.415793 22.111727
LeftArm 97.640267 49.530595 -39.466822
LeftForeArm -42.209609 0.000000 94.639114
LeftHand -22.543067 -0.000000 18.345163
LeftHandThumb1 -26.253704 0.000000 33.147579
RightShoulder 4.376438 -34.556257 -31.229488
RightArm 71.074590 27.061932 5.027670
RightForeArm -26.848208 0.000000 119.486833
RightHand 8.061778 -0.000000 22.993811
RightHandThumb1 -24.326973 -0.000000 -32.862282
LeftUpLeg 11.604055 0.076849 4.696075
LeftLeg 14.619742 -0.000000 -0.000000
LeftFoot -13.218498 -6.160326 -10.797406
LeftToeBase 9.841455 -0.000000 -0.000000
RightUpLeg 28.337293 -23.212062 -19.872350
RightLeg 1.884508 -0.000000 -0.000000
RightFoot -14.309553 2.235591 20.613675
RightToeBase 14.318763 -0.000000 -0.000000
1006
root 1.502572 35.592611 2.495500 -22.467917 -68.686697 8.113647
Spine 13.625400 9.625942 -13.660595
Head 0.234366 -15.204001 6.899305
LeftShoulder 8.365712 0.463464 22.165160
LeftArm 97.690878 49.563883 -39.445851
LeftForeArm -42.244697 -0.000000 94.725025
LeftHand -22.581064 0.000000 18.403031
LeftHandThumb1 -26.253704 0.000000 33.147579
RightShoulder 4.353865 -34.598437 -31.276247
RightArm 70.933226 27.192268 5.435647
RightForeArm -26.405247 -0.000000 119.897063
RightHand 7.816339 -0.000000 23.389460
RightHandThumb1 -24.326973 -0.000000 -32.862282
LeftUpLeg 11.601144 0.025869 4.687593
LeftLeg 14.615097 -0.000000 -0.000000
LeftFoot -13.173678 -6.231207 -10.804180
LeftToeBase 9.834727 -0.000000 -0.000000
RightUpLeg 28.402468 -23.279086 -19.920397
RightLeg 1.895650 -0.000000 -0.000000
RightFoot -14.331300 2.237040 20.663310
RightToeBase 14.342926 -0.000000 -0.000000
1007
root 1.511039 35.593072 2.488344 -22.455208 -68.554706 8.071116
Spine 13.718462 9.706184 -13.675383
Head 0.250488 -15.188438 6.918572
LeftShoulder 8.411826 0.485719 22.235756
LeftArm 97.822080 49.560411 -39.368780
LeftForeArm -42.202243 0.000000 94.776291
LeftHand -22.607076 0.000000 18.213897
LeftHandThumb1 -26.253704 0.000000 33.147579
RightShoulder 4.286249 -34.684614 -31.260858
RightArm 70.822606 27.393708 5.790915
RightForeArm -26.171538 -0.000000 120.366493
RightHand 7.537598 -0.000000 23.880591
RightHandThumb1 -24.326973 -0.000000 -32.862282
LeftUpLeg 11.586682 -0.050181 4.676078
LeftLeg 14.608098 -0.000000 -0.000000
LeftFoot -13.141674 -6.281765 -10.821496
LeftToeBase 9.915601 -0.000000 -0.000000
RightUpLeg 28.461673 -23.344105 -19.949918
RightLeg 1.896790 -0.000000 -0.000000
RightFoot -14.343728 2.180282 20.641712
RightToeBase 14.315381 -0.000000 -0.000000
1008
root 1.520036 35.593564 2.480394 -22.405258 -68.431782 8.011807
Spine 13.785654 9.778739 -13.682197
Head 0.275072 -15.156288 6.930781
LeftShoulder 8.445112 0.521213 22.288759
LeftArm 98.057832 49.523473 -39.138983
LeftForeArm -42.080042 -0.000000 94.871581
LeftHand -22.527304 -0.000000 18.464790
LeftHandThumb1 -26.253704 0.000000 33.147579
RightShoulder 4.189847 -34.773232 -31.201137
RightArm 70.730136 27.615368 6.078887
RightForeArm -25.870764 -0.000000 120.894899
RightHand 7.217931 -0.000000 24.564851
RightHandThumb1 -24.326973 -0.000000 -32.862282
LeftUpLeg 11.546463 -0.127049 4.669111
LeftLeg 14.612845 -0.000000 -0.000000
LeftFoot -13.110607 -6.308386 -10.796459
LeftToeBase 9.891630 -0.000000 -0.000000
RightUpLeg 28.502114 -23.422123 -19.964251
RightLeg 1.890748 -0.000000 -0.000000
RightFoot -14.359156 2.143805 20.645703
RightToeBase 14.313858 -0.000000 -0.000000
